# xmcd
#
# Track frame offsets: 
#        150
#        13440
#        27305
#        40252
#        52730
#        65700
#        79107
#        93015
#        106475
#        119902
#        133552
#        144855
#        156397
#        168330
#        178940
#        190702
#        204405
#        228867
#        241485
#        255000
#
# Disc length: 3543 seconds
#
# Revision: 11
# Processed by: cddbd v1.5.2PL0 Copyright (c) Steve Scherf et al.
# Submitted via: ExactAudioCopyFreeDBPlugin 1.0
#
DISCID=0c0dd514
DTITLE=Various Artist - Living the Blues^ Blues Legends
DYEAR=1995
DGENRE=Blues
TTITLE0=Elmore James - Dust My Broom
TTITLE1=Slim Harpo - I'm a King Bee
TTITLE2=Muddy Waters - Got My Mojo Working
TTITLE3=Howlin' Wolf - Spoonful
TTITLE4=Jimmy Reed - Big Boss Man
TTITLE5=Amos Milburn - Bad, Bad Whiskey
TTITLE6=Albert Collins - Frosty
TTITLE7=Bobby Bland - Farther Up the Road
TTITLE8=Otis Rush - I Can't Quit You Baby
TTITLE9=T-Bone Walker - Call It Stormy Monday but Tuesday Is Just As B
TTITLE9=ad
TTITLE10=Bo Diddley - Who Do You Love
TTITLE11=John Lee Hooker - Boom Boom
TTITLE12=Little Walter - My Babe
TTITLE13=J. B. Lenoir - Mama Talk to Your Daughter
TTITLE14=Sonny Boy Williamson - Bring It on Home
TTITLE15=Koko Taylor - Wang Dang Doodle
TTITLE16=B. B. King - The Thrill Is Gone
TTITLE17=Albert King - Born Under a Bad Sign
TTITLE18=Buddy Guy - Stone Crazy
TTITLE19=Charles Brown - Trouble Blues
EXTD=YEAR: 1995
EXTT0=
EXTT1=
EXTT2=
EXTT3=
EXTT4=
EXTT5=
EXTT6=
EXTT7=
EXTT8=
EXTT9=
EXTT10=
EXTT11=
EXTT12=
EXTT13=
EXTT14=
EXTT15=
EXTT16=
EXTT17=
EXTT18=
EXTT19=
PLAYORDER=
